# xmcd
#
# Track frame offsets:
#	183
#	19070
#	33910
#	49323
#	70408
#	85133
#	104003
#	118420
#	133308
#	149653
#	166268
#	184418
#
# Disc length: 2667 seconds
#
# Revision: 4
# Processed by: cddbd v1.5PL3 Copyright (c) Steve Scherf et al.
# Submitted via: audiograbber 1.82.02
#
DISCID=bb0a690c
DTITLE=Various Artist - Country Roads
DYEAR=1992
DGENRE=Country
TTITLE0=Asleep At The Wheel - (Get Your Kicks On) Route 66
TTITLE1=Brooks and Dunn - Boot Scootin' Boogie
TTITLE2=Patty Loveless - Can't Stop Myself From Loving You
TTITLE3=Clint Black - We Tell Ourselves
TTITLE4=George Strait - Gone As A Girl Can Get
TTITLE5=Mark Chesnutt - I'll Think Of Something
TTITLE6=Don Williams - Amanda
TTITLE7=Alabama - Take A Little Trip
TTITLE8=Lee Roy Parnell - What Kind Of Fool Do You Think I Am
TTITLE9=Diamond Rio - Nowhere Bound
TTITLE10=Mcbride and The Ride - Going Out Of My Mind
TTITLE11=Marty Stuart and Travis Tritt - This One's Gonna Hurt You (For A Long, L
TTITLE11=ong Time)
EXTD=YEAR: 1992
EXTT0=
EXTT1=
EXTT2=
EXTT3=
EXTT4=
EXTT5=
EXTT6=
EXTT7=
EXTT8=
EXTT9=
EXTT10=
EXTT11=
PLAYORDER=
